<svg xmlns="http://www.w3.org/2000/svg" viewBox="0 0 611.94 611.93">
    <defs>
        <style>.cls-1{fill:none;stroke:#252525;stroke-miterlimit:10;stroke-width:23px;}</style>
    </defs>
    <g data-name="Слой 2">
        <g data-name="Layer 1">
            <path class="cls-1" d="M600.44,312.72a318.23,318.23,0,0,0-3.37-48.94L549,253.65l-17.72-52.31,32.91-37.12a260.25,260.25,0,0,0-27-40.5l-47.25,16-41.34-36.28,10.12-48.94c-14.34-8.44-28.69-16-43.88-21.94L382.75,69.72l-54-11-16-47.25a318.22,318.22,0,0,0-48.94,3.37L253.66,63,201.35,80.69,164.22,47.78a260.34,260.34,0,0,0-40.5,27l16,47.25-36.28,41.34L54.54,153.25c-8.44,14.34-16,28.69-21.94,43.87L69.72,230l-11,54L11.5,299.22a318.23,318.23,0,0,0,3.37,48.94l48.94,10.12,17.72,52.31L48.63,447.72a260.34,260.34,0,0,0,27,40.5l47.25-16,41.34,36.28-11,48.94c14.34,8.44,28.69,16,43.88,21.94L230,542.22l54,11,16,47.25A318.22,318.22,0,0,0,349,597.06L359.12,549l52.31-17.72,37.12,32.91a260.34,260.34,0,0,0,40.5-27L473,489.9l36.28-41.34,48.94,10.12c8.44-14.34,16-28.69,21.94-43.87l-37.12-32.91,11-54,46.41-15.19ZM306,468.81c-90.28,0-163.69-73.41-163.69-163.69S215.69,141.44,306,141.44s163.69,73.41,163.69,163.69S396.25,468.81,306,468.81Z"/>
        </g>
    </g>
</svg>